<svg width="256" height="256" viewBox="0 0 24 24" fill="none" xmlns="http://www.w3.org/2000/svg">
  <path d="M19.5 3h-15A1.5 1.5 0 003 4.5v15A1.5 1.5 0 004.5 21h15a1.5 1.5 0 001.5-1.5v-15A1.5 1.5 0 0019.5 3z" stroke="#6C5CE7" stroke-width="2" stroke-linecap="round"/>
  <path d="M7 12h10M12 7v10" stroke="#6C5CE7" stroke-width="2" stroke-linecap="round"/>
</svg>
  <path d="M9 9H9.01" stroke="#6C5CE7" stroke-width="2" stroke-linecap="round" stroke-linejoin="round"/>
</svg>
  <path fillRule="evenodd" clipRule="evenodd" d="M21 5C21 2.79086 19.2091 1 17 1C14.7909 1 13 2.79086 13 5V9C13 11.2091 14.7909 13 17 13C19.2091 13 21 11.2091 21 9V5ZM17 3C15.8954 3 15 3.89543 15 5V9C15 10.1046 15.8954 11 17 11C18.1046 11 19 10.1046 19 9V5C19 3.89543 18.1046 3 17 3Z" fill="#6C5CE7"/>
  <path fillRule="evenodd" clipRule="evenodd" d="M4 14.9998C4 14.4475 4.44772 13.9998 5 13.9998H19C19.5523 13.9998 20 14.4475 20 14.9998V21.9998C20 22.5521 19.5523 22.9998 19 22.9998H5C4.44772 22.9998 4 22.5521 4 21.9998V14.9998ZM6 15.9998V20.9998H18V15.9998H6Z" fill="#6C5CE7"/>
</svg>
